HIERARCHY
ROOT Hips
{
	OFFSET -0.826874 104.329185 -13.986590
	CHANNELS 6 Xposition Yposition Zposition Xrotation Yrotation Zrotation
	JOINT Chest
	{
		OFFSET 0.754016 13.478645 1.977823
		CHANNELS 3 Xrotation Yrotation Zrotation
		JOINT Chest2
		{
			OFFSET -0.019843 21.055878 3.964331
			CHANNELS 3 Xrotation Yrotation Zrotation
			JOINT Chest3
			{
				OFFSET -0.305592 14.924011 0.012683
				CHANNELS 3 Xrotation Yrotation Zrotation
				JOINT Neck
				{
					OFFSET 0.758568 17.102127 2.357551
					CHANNELS 3 Xrotation Yrotation Zrotation
					JOINT Head
					{
						OFFSET -0.223234 10.306244 1.886546
						CHANNELS 3 Xrotation Yrotation Zrotation
						End Site
						{
							OFFSET -0.219016 10.319229 1.814756
						}
					}
				}
				JOINT LeftCollar
				{
					OFFSET 4.937447 12.569916 4.407161
					CHANNELS 3 Xrotation Yrotation Zrotation
					JOINT LeftUpArm
					{
						OFFSET 14.315561 -5.594818 -8.500711
						CHANNELS 3 Xrotation Yrotation Zrotation
						JOINT LeftLowArm
						{
							OFFSET 2.897924 -33.619476 1.030190
							CHANNELS 3 Xrotation Yrotation Zrotation
							JOINT LeftHand
							{
								OFFSET -3.658434 -27.859299 10.555696
								CHANNELS 3 Xrotation Yrotation Zrotation
								End Site
								{
									OFFSET -0.799572 -6.088814 2.307010
								}
							}
						}
					}
				}
				JOINT RightCollar
				{
					OFFSET -3.458451 12.872681 4.913425
					CHANNELS 3 Xrotation Yrotation Zrotation
					JOINT RightUpArm
					{
						OFFSET -14.891069 -5.360458 -7.616936
						CHANNELS 3 Xrotation Yrotation Zrotation
						JOINT RightLowArm
						{
							OFFSET -5.123041 -33.368118 -0.239133
							CHANNELS 3 Xrotation Yrotation Zrotation
							JOINT RightHand
							{
								OFFSET 3.013620 -27.599983 11.406731
								CHANNELS 3 Xrotation Yrotation Zrotation
								End Site
								{
									OFFSET 0.658659 -6.032249 2.493062
								}
							}
						}
					}
				}
			}
		}
	}
	JOINT LeftUpLeg
	{
		OFFSET 10.005481 -0.540756 -0.130693
		CHANNELS 3 Xrotation Yrotation Zrotation
		JOINT LeftLowLeg
		{
			OFFSET 2.532495 -46.716473 -7.426150
			CHANNELS 3 Xrotation Yrotation Zrotation
			JOINT LeftFoot
			{
				OFFSET -1.069643 -42.236084 -14.681198
				CHANNELS 3 Xrotation Yrotation Zrotation
				JOINT LeftToe
				{
					OFFSET 3.846535 -17.021645 15.969584
					CHANNELS 3 Xrotation Yrotation Zrotation
					End Site
					{
						OFFSET 5.107078 -2.733674 22.934771
					}
				}
			}
		}
	}
	JOINT RightUpLeg
	{
		OFFSET -10.005495 0.540558 0.130665
		CHANNELS 3 Xrotation Yrotation Zrotation
		JOINT RightLowLeg
		{
			OFFSET -2.083458 -47.324982 -0.127742
			CHANNELS 3 Xrotation Yrotation Zrotation
			JOINT RightFoot
			{
				OFFSET -0.797980 -41.936726 -15.532318
				CHANNELS 3 Xrotation Yrotation Zrotation
				JOINT RightToe
				{
					OFFSET 1.109693 -18.128590 15.155176
					CHANNELS 3 Xrotation Yrotation Zrotation
					End Site
					{
						OFFSET -0.802202 -4.500372 23.209034
					}
				}
			}
		}
	}
}
MOTION
Frames: 10
Frame Time: 0.033333
7.329102 99.448196 -29.406956 -2.038516 862.963256 -353.264323 -2.939938 -2.001575 12.035556 1.168421 -0.956625 -0.889699 -3.262894 8.682811 3.400983 -14.015985 19.912971 -12.250477 -0.000001 0.000001 -0.000000 -9.252436 7.743814 23.811677 -0.794149 16.303463 40.950123 5.863918 11.155027 -19.205293 -0.000001 -0.000007 0.000000 -10.027516 -3.413476 -19.747692 -14.614657 -1.158011 -56.068111 -19.531281 -12.875563 -38.436094 -0.000003 0.000006 -0.000000 -22.905123 3.393599 -7.215586 22.337166 -6.899930 -6.075601 -6.134442 9.213855 5.268883 0.000001 -0.000001 -0.000001 -18.386833 4.658178 -20.272795 31.647524 8.592941 4.701797 3.776618 -12.856892 -3.283552 -0.000002 0.000002 -0.000002 
7.374765 99.669502 -29.287132 -2.022609 877.425717 -354.197737 -4.706329 -1.839910 11.203730 -1.001224 -0.401730 -1.532897 -1.487404 7.919569 4.907535 -14.437367 19.284093 -11.814807 0.000001 0.000000 -0.000000 -9.013818 8.456409 21.878733 -0.385236 16.596596 39.764931 13.400121 10.257332 -18.628236 0.000004 -0.000002 0.000003 -11.002928 -6.644550 -20.985999 -11.875046 -7.504105 -55.761258 -21.130537 -11.785494 -33.448686 -0.000002 0.000004 0.000001 -23.914260 3.356274 -6.823348 24.082627 -7.687289 -4.921547 -8.832947 7.228865 4.525404 -0.000000 -0.000003 -0.000000 -15.423961 3.731288 -20.338015 30.230581 8.756822 2.677638 4.237789 -12.770423 -2.603146 -0.000002 0.000001 -0.000004 
7.482480 99.808395 -29.151089 -1.724236 890.868021 -355.203797 -6.965509 -1.674402 10.375781 -1.385581 0.410159 -2.409335 -1.936137 6.726391 6.296128 -12.653573 17.636382 -11.022126 0.000004 0.000000 0.000001 -9.271485 10.084124 22.606914 -0.979224 15.668778 38.567585 16.664750 9.619796 -19.516110 -0.000006 -0.000002 0.000003 -11.552496 -8.103271 -22.323191 -9.820214 -11.822747 -54.228034 -22.413507 -11.414955 -28.462001 0.000001 0.000001 0.000001 -25.637842 3.216137 -6.428216 25.520418 -8.501261 -5.390783 -9.611213 6.532293 4.300255 -0.000000 -0.000002 -0.000000 -11.321117 2.396983 -19.651600 27.462965 8.959473 4.221413 4.384977 -16.778469 -4.726383 -0.000003 0.000002 -0.000001 
7.713067 99.838402 -28.957287 -1.237895 905.032030 -356.628875 -8.659189 -1.201852 8.712301 -2.178290 1.008799 -2.947303 -2.200174 3.990909 7.286769 -12.065799 16.561860 -10.154970 0.000000 -0.000002 -0.000000 -9.232852 10.806023 24.534422 -0.627416 13.842997 34.973103 16.596569 11.519164 -12.227324 -0.000000 0.000001 -0.000000 -11.433944 -7.962515 -23.249952 -8.115744 -11.141782 -49.284459 -21.186880 -10.943196 -28.615054 0.000001 0.000001 -0.000001 -24.545161 2.406021 -4.879611 23.035546 -8.131405 -10.781909 -8.297964 11.584742 7.974740 -0.000000 0.000000 -0.000001 -6.255745 0.967153 -17.236630 23.109742 8.532018 9.124747 5.929692 -24.795504 -8.927297 0.000000 0.000002 -0.000001 
8.050032 99.834122 -28.824852 -1.383833 918.671372 -357.924944 -9.231247 -0.797154 6.695098 -0.749199 1.606663 -3.778586 -5.178392 4.876648 8.247531 -11.293505 14.739663 -8.357514 -0.000001 0.000001 0.000001 -8.665622 12.119088 26.367773 -0.072774 10.738100 34.002068 9.533670 10.471302 -7.834904 0.000000 -0.000003 0.000001 -10.744466 -9.163439 -23.876265 -8.311680 -5.887530 -45.646786 -15.984555 -10.789303 -32.039328 -0.000002 0.000003 0.000003 -24.751806 1.873546 -3.975346 20.410495 -7.154234 -16.111685 -7.480609 15.335265 10.568152 -0.000001 0.000002 -0.000000 -4.384070 0.524488 -14.821545 23.635385 8.593630 14.955184 7.902751 -31.109227 -11.539891 -0.000003 0.000001 -0.000000 
8.407372 99.791138 -28.718309 -1.109215 930.686931 -359.296801 -8.560712 -0.574204 5.367253 -1.292802 2.415159 -4.486165 -5.987010 6.657144 9.139043 -11.036730 14.602663 -7.288897 0.000001 -0.000001 -0.000001 -7.504403 13.262095 27.413173 -0.136234 6.230550 34.315611 2.569517 8.187466 -2.921071 0.000001 -0.000001 0.000001 -9.801455 -10.708749 -24.868862 -6.503877 -2.411444 -43.207179 -11.041480 -9.807212 -35.405672 -0.000004 0.000006 0.000000 -23.728082 1.716701 -3.361976 17.927355 -6.204637 -17.816690 -6.557825 16.604796 11.367760 -0.000001 0.000001 -0.000001 -3.331842 0.226421 -12.103117 25.290478 8.724819 17.987098 13.481569 -33.486314 -10.131444 0.000002 0.000000 0.000001 
8.862352 99.725464 -28.654785 -2.132779 943.249889 -361.900770 -7.488552 -0.148550 3.508436 -4.486662 3.594767 -5.264814 -3.356189 7.433539 8.796991 -13.213642 15.943116 -8.536296 0.000000 -0.000001 -0.000001 -7.859310 14.794321 27.438736 0.841235 3.192415 32.201364 -6.912387 7.547788 9.307377 -0.000002 -0.000003 0.000005 -8.723681 -9.074933 -27.425764 -3.429415 -1.016787 -40.502052 -6.825845 -8.609370 -37.422227 -0.000000 -0.000000 0.000003 -23.424223 1.103799 -2.925967 18.073019 -4.603361 -14.518728 -8.647740 11.656501 9.195435 0.000000 -0.000001 0.000000 -6.683139 1.287797 -11.054094 29.705968 8.980452 20.657328 19.731962 -32.226410 -7.186261 -0.000001 0.000000 -0.000001 
9.391633 99.678230 -28.567356 -5.090229 958.012278 -364.999490 -4.312112 -0.292029 3.956881 -5.516778 4.430053 -5.931062 -2.961531 6.610003 6.755713 -14.827362 16.440004 -9.044660 0.000000 0.000000 0.000000 -6.533169 11.760322 28.814003 3.811371 4.465856 37.672229 -14.559130 4.419454 7.513510 -0.000005 0.000002 -0.000003 -8.170382 -8.184396 -28.812316 -0.741983 -2.739045 -38.640105 -14.071423 -5.180861 -46.604437 -0.000000 0.000004 0.000001 -24.401047 1.277007 -5.035685 21.112753 -4.992990 -9.390521 -10.005914 4.683739 4.830675 -0.000002 -0.000003 -0.000002 -11.637305 2.883843 -12.674447 35.383597 10.220869 22.406707 22.226846 -29.185675 -5.400524 0.000002 0.000002 -0.000003 
9.893500 99.617943 -28.442356 -11.067958 971.842919 -370.310181 -1.823394 -0.260479 3.581953 -5.822317 3.006827 -4.346261 -3.192566 6.719745 4.332232 -13.954699 16.756180 -8.829170 -0.000001 0.000000 0.000000 -5.655192 9.960839 30.709784 4.539162 6.143356 37.993159 -19.340137 3.214172 3.073233 -0.000000 -0.000001 -0.000000 -9.152827 -9.147778 -31.707695 -1.604582 -2.240259 -41.143752 -18.514401 -2.871111 -50.609772 -0.000004 0.000005 0.000003 -23.684096 2.348748 -7.454533 23.396398 -5.842260 -5.761350 -11.779103 -1.419359 0.520202 -0.000000 -0.000003 -0.000001 -14.965908 3.869309 -14.819402 40.190718 11.455603 21.087642 21.503326 -27.260410 -4.881021 -0.000003 -0.000002 -0.000001 
10.382058 99.591141 -28.321880 -44.700846 985.303856 -403.323736 1.372684 -0.520538 5.073533 -3.534429 3.720874 -5.718400 -4.526964 3.793168 4.078208 -13.590556 17.306542 -10.000416 0.000000 -0.000000 -0.000001 -5.702298 7.255595 30.635919 4.961753 11.125555 38.498494 -18.531029 6.208874 -2.401721 0.000000 0.000000 -0.000001 -10.118315 -8.856558 -31.801637 -6.585181 1.501000 -45.039070 -31.854158 2.431482 -47.667597 -0.000000 0.000001 -0.000002 -22.912834 2.512673 -7.636715 26.363581 -7.029079 -3.819044 -14.336159 -3.985229 -1.444337 0.000001 -0.000001 0.000001 -18.311575 4.478469 -14.590865 43.476319 12.051818 15.947296 11.666839 -25.639499 -8.068543 -0.000000 0.000000 0.000001 
